<svg width="10" height="12" viewBox="0 0 10 12" fill="none" xmlns="http://www.w3.org/2000/svg">
<path d="M9.24898 6.79992C9.24907 6.79644 9.24916 6.79305 9.24916 6.78957C9.24916 6.07665 8.66908 5.49657 7.95607 5.49657H7.60313L9.15056 1.76442C9.4233 1.10588 9.10945 0.348 8.45082 0.0749895C7.7921 -0.197838 7.03422 0.116097 6.76139 0.77482L5.79432 3.10942L4.82734 0.774728C4.55442 0.116097 3.79655 -0.197838 3.13791 0.0749895C2.47928 0.347909 2.16535 1.10569 2.43817 1.76432L3.27826 3.79259C3.17225 3.85521 3.07602 3.93248 2.99216 4.02165C2.75614 3.7708 2.4216 3.6136 2.05081 3.61351C1.3378 3.61351 0.757812 4.19359 0.757812 4.9066V7.73092C0.757812 10.072 2.66239 11.9766 5.00349 11.9766C7.34449 11.9766 9.24907 10.072 9.24907 7.73092L9.24898 6.79992ZM3.40708 0.724649C3.70746 0.600137 4.05317 0.743417 4.17768 1.04389L5.46949 4.16264C5.52397 4.29402 5.65214 4.37972 5.79432 4.37972C5.9365 4.37972 6.06468 4.29402 6.11915 4.16264L7.41096 1.04389C7.53547 0.743417 7.88118 0.600137 8.18165 0.724557C8.48213 0.849161 8.62532 1.19486 8.5009 1.49525L6.84187 5.49657H5.2266L5.22669 4.9066C5.2266 4.20439 4.66373 3.63155 3.96555 3.61433L3.08783 1.49534C2.96332 1.19486 3.1066 0.849161 3.40708 0.724649ZM3.9336 5.49657C3.7212 5.49657 3.52079 5.54839 3.34382 5.63958V4.9066C3.34382 4.58132 3.6084 4.31673 3.9336 4.31673C4.25889 4.31673 4.52348 4.58141 4.52357 4.9066L4.52348 5.49657H3.9336ZM1.46094 4.9066C1.46094 4.58132 1.72553 4.31664 2.05072 4.31664C2.37601 4.31673 2.6406 4.58141 2.64069 4.9066V6.78948C2.6406 7.11468 2.37601 7.37926 2.05081 7.37926C1.72562 7.37926 1.46094 7.11468 1.46094 6.78948V4.9066ZM5.00349 11.2735C3.12134 11.2735 1.57749 9.79791 1.46753 7.94286C1.64285 8.03185 1.84097 8.08248 2.05081 8.08248C2.4216 8.08248 2.75623 7.92529 2.99225 7.67434C3.22828 7.92529 3.56281 8.08248 3.93369 8.08248H7.01463C7.20881 8.08248 7.36619 7.9251 7.36619 7.73092C7.36619 7.53683 7.20881 7.37936 7.01463 7.37936H3.93369C3.6085 7.37936 3.34382 7.11468 3.34382 6.78948C3.34391 6.46428 3.6085 6.1997 3.93369 6.1997H4.87495C4.87504 6.1997 4.87504 6.1997 4.87504 6.1997H4.87513C4.87513 6.1997 4.87513 6.1997 4.87522 6.1997H7.07487C7.07542 6.1997 7.07606 6.19979 7.07661 6.19979C7.07744 6.19979 7.07817 6.1997 7.07899 6.1997H7.95607C8.28007 6.1997 8.54384 6.46209 8.54604 6.78554C8.54594 6.78875 8.54594 6.79204 8.54594 6.79534V7.73092C8.54594 9.68429 6.95677 11.2735 5.00349 11.2735Z" fill="#FFBC33"/>
</svg>
